<svg width="1001" height="1003" viewBox="0 0 1001 1003" fill="none" xmlns="http://www.w3.org/2000/svg">
<g clip-path="url(#clip0_8_5)">
<path d="M738.438 818.639C860.626 818.639 963.441 734.626 994.054 619.734C1031.58 788.916 899.306 928.258 751.472 928.258C599.207 928.258 475.625 802.239 475.625 646.936C475.625 631.96 476.963 617.322 479.02 603.341C503.903 726.072 610.764 818.639 738.438 818.639Z" stroke="white"/>
<path d="M522.5 462.5C522 465.5 457.503 521.466 457.503 678.208C457.503 841.589 621.156 981.134 780.983 972.144C661.399 1022.56 523.44 1013.57 435.261 910.773C382.794 849.653 349.91 754.731 350 673.5" stroke="white"/>
<path d="M595.48 299.451C623.078 336.585 659.103 368.639 699.734 390.916C699.734 390.916 693.977 430.788 727.705 470.654C487.388 345.966 179.609 678.208 449.824 983.867C272.366 927.585 166.218 724.723 206.822 542.575C149.331 537.495 108.321 501.926 102.569 488.634C209.123 515.605 273.9 482.791 330.245 444.839" stroke="white"/>
<path d="M746.099 489.025C728.472 474.173 717.36 458.539 710.458 444.074C589.724 340.104 429.148 430.005 304.177 449.927C168.88 471.827 52.3597 429.614 1 252.549C153.545 362.772 297.279 288.51 457.873 256.847C406.513 239.649 343.658 249.421 305.711 250.203C519.582 118.862 747.637 184.144 841.144 324.47" stroke="white"/>
<path d="M825.444 303.357C821.997 299.06 818.546 295.149 815.094 290.847C725.025 191.183 596.243 178.673 592.015 2C526.092 86.0395 529.923 183.366 572.85 263.49" stroke="white"/>
<path d="M825.5 303.5C842.5 325.5 865.322 363.573 874.138 391.717C882.953 419.86 885.633 449.568 879.502 477.707C878.338 482.768 866.838 495.287 856.493 506.232C863.382 591.054 835.41 642.648 835.41 642.648C835.41 642.648 815.483 541.024 753.39 494.896C691.297 448.768 699.729 390.916 699.729 390.916C619.622 346.748 557.529 266.228 544.13 179.083" stroke="white"/>
<path d="M779.921 423.965C775.935 413.256 767.172 393.146 758.449 377.099C775.657 393.792 792.926 417.42 803.543 435.34C807.95 442.767 810.989 448.295 812.934 454.391C814.876 460.481 815.735 467.166 815.735 476.907V476.991L815.763 477.07L819.57 488.045C819.041 487.464 818.395 486.756 817.645 485.938C815.392 483.48 812.204 480.033 808.465 476.072C801.033 468.2 791.417 458.296 782.633 450.11C782.637 446.99 782.725 444.546 782.8 442.469L782.806 442.297C782.884 440.139 782.945 438.36 782.872 436.628C782.726 433.138 782.039 429.86 779.923 423.97L779.921 423.965Z" stroke="white"/>
<path d="M874.802 531.028C868.193 525.077 864.812 519.04 863.117 514.872C871.919 524.114 883.884 527.412 896.211 530.809C897.145 531.067 898.081 531.325 899.017 531.586C912.807 535.43 926.871 539.976 937.793 553.398C931.759 551.83 924.626 550.3 916.191 548.877C895.701 545.41 882.846 538.271 874.802 531.028Z" stroke="white"/>
<path d="M898.978 526.687C908.756 529.422 918.648 532.743 927.398 539.529C918.064 533.481 907.78 530.646 897.84 527.906L897.817 527.899H897.816L897.673 527.859C887.739 525.105 878.392 522.514 870.727 516.982C877.686 520.923 885.75 523.1 894.029 525.335C895.673 525.779 897.325 526.225 898.978 526.687Z" stroke="white"/>
<path d="M885.663 518.878C876.875 517.932 870.683 514.997 866.938 512.599C879.367 514.939 890.995 510.555 902.972 506.039C903.886 505.694 904.802 505.349 905.721 505.006C919.144 499.99 933.188 495.391 949.713 499.886C943.899 502.176 937.211 505.146 929.533 508.963C910.864 518.248 896.332 520.027 885.663 518.878Z" stroke="white"/>
<path d="M902.623 502.714C892.895 506.384 883.725 509.836 874.254 509.827C877.645 509.449 881.013 508.685 884.383 507.696C888.911 506.366 893.47 504.621 898.1 502.849C899.691 502.24 901.29 501.627 902.9 501.028C912.446 497.47 922.417 494.326 933.429 494.705C922.364 495.276 912.35 499.049 902.672 502.695L902.623 502.714Z" stroke="white"/>
<path d="M896.265 481.012C904.748 469.281 913.968 457.545 930.165 451.989C926.557 457.169 922.587 463.402 918.248 470.905C907.685 489.156 896.524 498.816 887.003 503.86C879.165 508.013 872.417 509.049 867.991 509.157C879.652 504.119 886.99 493.911 894.549 483.394C895.119 482.601 895.69 481.806 896.265 481.012Z" stroke="white"/>
<path d="M872.688 502.684C875.289 500.474 877.666 497.96 879.925 495.26C882.982 491.606 885.839 487.588 888.742 483.505C889.741 482.101 890.745 480.689 891.764 479.282C897.776 470.983 904.362 462.787 913.687 456.91C904.833 463.589 898.569 472.307 892.507 480.743L892.436 480.842C886.319 489.35 880.552 497.359 872.688 502.684Z" stroke="white"/>
<path d="M951.182 655.263C951.182 675.799 934.86 692.43 914.746 692.43C894.632 692.43 878.31 675.799 878.31 655.263C878.31 634.727 894.632 618.096 914.746 618.096C934.86 618.096 951.182 634.727 951.182 655.263Z" stroke="white"/>
</g>
<defs>
<clipPath id="clip0_8_5">
<rect width="1001" height="1003" fill="white"/>
</clipPath>
</defs>
</svg>
